<svg data-v-423bf9ae="" xmlns="http://www.w3.org/2000/svg" viewBox="0 0 476.4735820024269 60" class="font"><!----><!----><defs data-v-423bf9ae=""><linearGradient data-v-423bf9ae="" gradientTransform="rotate(25)" id="4a3fa266-2661-4061-ad67-e7a6f372302d" x1="0%" y1="0%" x2="100%" y2="0%"><stop data-v-423bf9ae="" offset="0%" style="stop-color: rgb(106, 79, 76); stop-opacity: 1;"></stop><stop data-v-423bf9ae="" offset="100%" style="stop-color: rgb(160, 162, 155); stop-opacity: 1;"></stop></linearGradient></defs><g data-v-423bf9ae="" id="361a4c38-2be2-40b7-a1da-cbf92e51b210" fill="url(#4a3fa266-2661-4061-ad67-e7a6f372302d)" transform="matrix(5.110732637968813,0,0,5.110732637968813,-4.65076795361631,-16.2521294146633)"><path d="M2.39 13.02L2.39 13.02L1.20 13.02Q0.91 13.02 0.91 12.73L0.91 12.73L0.91 4.31Q0.91 4.02 1.20 4.02L1.20 4.02L4.54 4.02Q5.63 4.02 6.24 4.62Q6.86 5.22 6.86 6.31L6.86 6.31L6.86 7.41Q6.86 8.99 5.61 9.51L5.61 9.51L5.61 9.56L7.11 12.68Q7.24 13.02 6.87 13.02L6.87 13.02L5.74 13.02Q5.49 13.02 5.38 12.96Q5.26 12.91 5.19 12.73L5.19 12.73L3.79 9.70L2.86 9.70Q2.69 9.70 2.69 9.86L2.69 9.86L2.69 12.73Q2.69 13.02 2.39 13.02ZM2.84 8.27L2.84 8.27L4.21 8.27Q4.66 8.27 4.87 8.08Q5.08 7.90 5.08 7.48L5.08 7.48L5.08 6.38Q5.08 5.95 4.87 5.75Q4.66 5.56 4.21 5.56L4.21 5.56L2.84 5.56Q2.69 5.56 2.69 5.71L2.69 5.71L2.69 8.12Q2.69 8.27 2.84 8.27ZM13.69 13.02L13.69 13.02L10.60 13.02Q9.49 13.02 8.89 12.43Q8.29 11.84 8.29 10.74L8.29 10.74L8.29 8.16Q8.29 7.06 8.89 6.47Q9.49 5.88 10.60 5.88L10.60 5.88L11.70 5.88Q12.81 5.88 13.41 6.47Q14.01 7.06 14.01 8.16L14.01 8.16L14.01 9.94Q14.01 10.23 13.72 10.23L13.72 10.23L10.21 10.23Q10.04 10.23 10.04 10.39L10.04 10.39L10.04 10.70Q10.04 11.13 10.23 11.32Q10.42 11.51 10.86 11.51L10.86 11.51L13.69 11.51Q13.99 11.51 13.99 11.82L13.99 11.82L13.99 12.74Q13.99 12.89 13.92 12.96Q13.86 13.02 13.69 13.02ZM10.21 9.04L10.21 9.04L12.11 9.04Q12.26 9.04 12.26 8.89L12.26 8.89L12.26 8.22Q12.26 7.77 12.08 7.59Q11.90 7.41 11.45 7.41L11.45 7.41L10.86 7.41Q10.42 7.41 10.23 7.59Q10.05 7.77 10.05 8.22L10.05 8.22L10.05 8.89Q10.05 9.04 10.21 9.04ZM18.05 13.02L18.05 13.02L15.39 13.02Q15.11 13.02 15.11 12.73L15.11 12.73L15.11 11.83Q15.11 11.68 15.16 11.61Q15.22 11.55 15.39 11.55L15.39 11.55L17.72 11.55Q18.41 11.55 18.41 11.13L18.41 11.13L18.41 11.06Q18.41 10.72 17.84 10.42L17.84 10.42L16.45 9.65Q15.74 9.28 15.40 8.86Q15.06 8.44 15.06 7.78L15.06 7.78Q15.06 6.80 15.58 6.34Q16.10 5.88 17.21 5.88L17.21 5.88L19.54 5.88Q19.82 5.88 19.82 6.17L19.82 6.17L19.82 7.08Q19.82 7.24 19.77 7.30Q19.71 7.36 19.54 7.36L19.54 7.36L17.60 7.36Q16.91 7.36 16.91 7.71L16.91 7.71L16.91 7.78Q16.91 8.09 17.51 8.41L17.51 8.41L18.93 9.25Q19.66 9.65 19.95 10.06Q20.24 10.47 20.24 11.14L20.24 11.14Q20.24 13.02 18.05 13.02ZM26.74 13.02L26.74 13.02L23.65 13.02Q22.54 13.02 21.94 12.43Q21.34 11.84 21.34 10.74L21.34 10.74L21.34 8.16Q21.34 7.06 21.94 6.47Q22.54 5.88 23.65 5.88L23.65 5.88L24.75 5.88Q25.86 5.88 26.46 6.47Q27.06 7.06 27.06 8.16L27.06 8.16L27.06 9.94Q27.06 10.23 26.77 10.23L26.77 10.23L23.25 10.23Q23.09 10.23 23.09 10.39L23.09 10.39L23.09 10.70Q23.09 11.13 23.28 11.32Q23.46 11.51 23.91 11.51L23.91 11.51L26.74 11.51Q27.03 11.51 27.03 11.82L27.03 11.82L27.03 12.74Q27.03 12.89 26.97 12.96Q26.91 13.02 26.74 13.02ZM23.25 9.04L23.25 9.04L25.16 9.04Q25.31 9.04 25.31 8.89L25.31 8.89L25.31 8.22Q25.31 7.77 25.13 7.59Q24.95 7.41 24.50 7.41L24.50 7.41L23.91 7.41Q23.46 7.41 23.28 7.59Q23.10 7.77 23.10 8.22L23.10 8.22L23.10 8.89Q23.10 9.04 23.25 9.04ZM29.88 13.02L29.88 13.02L28.69 13.02Q28.39 13.02 28.39 12.73L28.39 12.73L28.39 6.17Q28.39 5.88 28.69 5.88L28.69 5.88L29.88 5.88Q30.17 5.88 30.17 6.17L30.17 6.17L30.17 6.65L30.23 6.65Q30.38 6.27 30.77 6.08Q31.16 5.88 31.60 5.88L31.60 5.88L32.10 5.88Q32.38 5.88 32.38 6.17L32.38 6.17L32.38 7.14Q32.38 7.31 32.32 7.37Q32.26 7.43 32.10 7.42L32.10 7.42L31.14 7.42Q30.17 7.42 30.17 8.51L30.17 8.51L30.17 12.73Q30.17 13.02 29.88 13.02ZM32.97 5.88L32.97 5.88L34.20 5.88Q34.48 5.88 34.54 6.17L34.54 6.17L35.74 11.44L35.84 11.44L37.02 6.17Q37.07 5.88 37.37 5.88L37.37 5.88L38.60 5.88Q38.89 5.88 38.81 6.17L38.81 6.17L37.04 12.71Q36.99 13.02 36.67 13.02L36.67 13.02L34.89 13.02Q34.59 13.02 34.51 12.71L34.51 12.71L32.76 6.17Q32.68 5.88 32.97 5.88ZM42.34 13.02L42.34 13.02L42 13.02Q40.89 13.02 40.29 12.43Q39.69 11.84 39.69 10.74L39.69 10.74L39.69 8.16Q39.69 7.06 40.29 6.47Q40.89 5.88 42 5.88L42 5.88L45.23 5.88Q45.54 5.88 45.54 6.17L45.54 6.17L45.54 12.73Q45.54 13.02 45.23 13.02L45.23 13.02L44.06 13.02Q43.76 13.02 43.76 12.73L43.76 12.73L43.76 12.26L43.71 12.26Q43.55 12.64 43.16 12.83Q42.77 13.02 42.34 13.02ZM43.76 10.42L43.76 10.42L43.76 7.57Q43.76 7.42 43.60 7.42L43.60 7.42L42.28 7.42Q41.83 7.42 41.65 7.61Q41.47 7.80 41.47 8.25L41.47 8.25L41.47 10.65Q41.47 11.10 41.65 11.29Q41.83 11.48 42.28 11.48L42.28 11.48L42.80 11.48Q43.76 11.48 43.76 10.42ZM47.24 7.42L47.24 7.42L46.68 7.42Q46.51 7.42 46.45 7.36Q46.38 7.31 46.38 7.14L46.38 7.14L46.38 6.17Q46.38 5.88 46.68 5.88L46.68 5.88L47.24 5.88Q47.39 5.88 47.39 5.73L47.39 5.73L47.39 4.40Q47.39 4.10 47.70 4.10L47.70 4.10L48.87 4.10Q49.17 4.10 49.17 4.40L49.17 4.40L49.17 5.73Q49.17 5.88 49.34 5.88L49.34 5.88L50.43 5.88Q50.72 5.88 50.72 6.17L50.72 6.17L50.72 7.14Q50.72 7.29 50.66 7.36Q50.60 7.42 50.43 7.42L50.43 7.42L49.34 7.42Q49.17 7.42 49.17 7.57L49.17 7.57L49.17 10.67Q49.17 11.10 49.36 11.29Q49.56 11.48 50.01 11.48L50.01 11.48L50.57 11.48Q50.86 11.48 50.86 11.77L50.86 11.77L50.86 12.74Q50.86 12.89 50.80 12.96Q50.74 13.02 50.57 13.02L50.57 13.02L49.71 13.02Q48.61 13.02 48.00 12.43Q47.39 11.84 47.39 10.75L47.39 10.75L47.39 7.57Q47.39 7.42 47.24 7.42ZM52.09 4.68L52.09 4.68L52.09 3.46Q52.09 3.18 52.37 3.18L52.37 3.18L53.59 3.18Q53.87 3.18 53.87 3.44L53.87 3.44L53.87 4.68Q53.87 4.96 53.59 4.96L53.59 4.96L52.37 4.96Q52.09 4.96 52.09 4.68ZM52.09 12.73L52.09 12.73L52.09 6.17Q52.09 5.88 52.37 5.88L52.37 5.88L53.58 5.88Q53.87 5.88 53.87 6.17L53.87 6.17L53.87 12.73Q53.87 12.91 53.81 12.96Q53.75 13.02 53.59 13.02L53.59 13.02L52.39 13.02Q52.09 13.02 52.09 12.73ZM58.90 13.02L58.90 13.02L57.65 13.02Q56.55 13.02 55.94 12.43Q55.34 11.84 55.34 10.74L55.34 10.74L55.34 8.16Q55.34 7.06 55.94 6.47Q56.55 5.88 57.65 5.88L57.65 5.88L58.90 5.88Q59.99 5.88 60.60 6.47Q61.21 7.07 61.21 8.16L61.21 8.16L61.21 10.74Q61.21 11.83 60.60 12.42Q59.99 13.02 58.90 13.02ZM57.92 11.49L57.92 11.49L58.63 11.49Q59.08 11.49 59.27 11.31Q59.46 11.13 59.46 10.68L59.46 10.68L59.46 8.22Q59.46 7.77 59.27 7.59Q59.08 7.41 58.63 7.41L58.63 7.41L57.92 7.41Q57.47 7.41 57.29 7.59Q57.11 7.77 57.11 8.22L57.11 8.22L57.11 10.68Q57.11 11.13 57.29 11.31Q57.47 11.49 57.92 11.49ZM64.09 13.02L64.09 13.02L62.90 13.02Q62.61 13.02 62.61 12.73L62.61 12.73L62.61 6.17Q62.61 5.88 62.90 5.88L62.90 5.88L64.09 5.88Q64.39 5.88 64.39 6.17L64.39 6.17L64.39 6.64L64.44 6.64Q64.75 5.88 65.81 5.88L65.81 5.88L66.26 5.88Q68.46 5.88 68.46 8.16L68.46 8.16L68.46 12.73Q68.46 13.02 68.15 13.02L68.15 13.02L66.98 13.02Q66.68 13.02 66.68 12.73L66.68 12.73L66.68 8.25Q66.68 7.80 66.49 7.61Q66.30 7.42 65.86 7.42L65.86 7.42L65.35 7.42Q64.39 7.42 64.39 8.48L64.39 8.48L64.39 12.73Q64.39 13.02 64.09 13.02ZM74.09 13.02L74.09 13.02L72.74 13.02Q72.49 13.02 72.58 12.73L72.58 12.73L74.79 4.31Q74.89 4.02 75.21 4.02L75.21 4.02L77.07 4.02Q77.42 4.02 77.49 4.31L77.49 4.31L79.70 12.73Q79.79 13.02 79.53 13.02L79.53 13.02L78.19 13.02Q78.04 13.02 77.98 12.96Q77.92 12.89 77.90 12.73L77.90 12.73L77.50 11.19L74.77 11.19L74.38 12.73Q74.35 12.89 74.29 12.96Q74.23 13.02 74.09 13.02ZM76.17 5.71L76.12 5.71L75.11 9.76L77.18 9.76L76.17 5.71ZM82.29 14.92L82.29 14.92L81.10 14.92Q80.81 14.92 80.81 14.64L80.81 14.64L80.81 6.17Q80.81 5.88 81.10 5.88L81.10 5.88L82.29 5.88Q82.59 5.88 82.59 6.17L82.59 6.17L82.59 6.64L82.64 6.64Q82.80 6.26 83.19 6.07Q83.58 5.88 84.01 5.88L84.01 5.88L84.59 5.88Q85.67 5.88 86.22 6.47Q86.77 7.06 86.77 8.16L86.77 8.16L86.77 10.74Q86.77 11.84 86.22 12.43Q85.67 13.02 84.59 13.02L84.59 13.02L84.01 13.02Q83.58 13.02 83.19 12.83Q82.80 12.64 82.64 12.26L82.64 12.26L82.59 12.26L82.59 14.64Q82.59 14.92 82.29 14.92ZM83.55 11.48L83.55 11.48L84.17 11.48Q84.62 11.48 84.80 11.29Q84.99 11.10 84.99 10.65L84.99 10.65L84.99 8.25Q84.99 7.80 84.80 7.61Q84.62 7.42 84.17 7.42L84.17 7.42L83.55 7.42Q82.59 7.42 82.59 8.48L82.59 8.48L82.59 10.42Q82.59 11.48 83.55 11.48ZM89.66 14.92L89.66 14.92L88.47 14.92Q88.17 14.92 88.17 14.64L88.17 14.64L88.17 6.17Q88.17 5.88 88.47 5.88L88.47 5.88L89.66 5.88Q89.95 5.88 89.95 6.17L89.95 6.17L89.95 6.64L90.01 6.64Q90.16 6.26 90.55 6.07Q90.94 5.88 91.38 5.88L91.38 5.88L91.95 5.88Q93.03 5.88 93.58 6.47Q94.14 7.06 94.14 8.16L94.14 8.16L94.14 10.74Q94.14 11.84 93.58 12.43Q93.03 13.02 91.95 13.02L91.95 13.02L91.38 13.02Q90.94 13.02 90.55 12.83Q90.16 12.64 90.01 12.26L90.01 12.26L89.95 12.26L89.95 14.64Q89.95 14.92 89.66 14.92ZM90.92 11.48L90.92 11.48L91.53 11.48Q91.98 11.48 92.17 11.29Q92.36 11.10 92.36 10.65L92.36 10.65L92.36 8.25Q92.36 7.80 92.17 7.61Q91.98 7.42 91.53 7.42L91.53 7.42L90.92 7.42Q89.95 7.42 89.95 8.48L89.95 8.48L89.95 10.42Q89.95 11.48 90.92 11.48Z"></path></g><!----><!----></svg>