<svg data-v-423bf9ae="" xmlns="http://www.w3.org/2000/svg" viewBox="0 0 163.79233176903946 60" class="font"><!----><!----><defs data-v-423bf9ae=""><linearGradient data-v-423bf9ae="" gradientTransform="rotate(25)" id="1f0b1563-dbb2-4768-abf6-9d04b30dff13" x1="0%" y1="0%" x2="100%" y2="0%"><stop data-v-423bf9ae="" offset="0%" style="stop-color: rgb(145, 60, 0); stop-opacity: 1;"></stop><stop data-v-423bf9ae="" offset="100%" style="stop-color: rgb(217, 173, 118); stop-opacity: 1;"></stop></linearGradient></defs><g data-v-423bf9ae="" id="92ef7451-9f23-404b-98ed-b0840d5016c4" fill="url(#1f0b1563-dbb2-4768-abf6-9d04b30dff13)" transform="matrix(4.51467302315642,0,0,4.51467302315642,-3.656884659820122,-21.489843669876898)"><path d="M3.88 15.22C6.30 15.22 7.31 13.66 7.31 11.14C7.31 8.58 6.29 7.59 4.82 7.59C3.77 7.59 3.02 8.12 2.72 8.99L2.72 8.23C2.72 7.55 2.76 6.27 3.02 5.18C2.84 5.04 2.41 4.76 1.83 4.76C1.26 4.76 0.81 5.12 0.81 5.75L0.81 14.29C1.47 14.87 2.63 15.22 3.88 15.22ZM3.74 14.46C3.36 14.46 2.98 14.34 2.73 14.17L2.73 11.55C2.73 9.94 3.26 8.58 4.35 8.58C5.00 8.58 5.25 9.35 5.25 11.14C5.25 12.94 5.03 14.45 3.74 14.46ZM8.27 10.85L8.27 11.96L12.87 11.96L12.87 10.85ZM21.06 13.55C20.96 13.69 20.78 13.73 20.68 13.73C20.37 13.73 20.22 13.48 20.22 12.99L20.22 10.63C20.22 8.44 19.28 7.59 17.19 7.59C15.36 7.59 14.18 8.20 14.18 9.32C14.18 10.05 14.70 10.63 15.61 10.63C16.02 10.63 16.41 10.51 16.63 10.29C16.24 10.07 16.14 9.63 16.14 9.25C16.14 8.51 16.53 8.22 17.08 8.22C17.96 8.22 18.24 8.99 18.24 10.50L18.24 10.85C17.71 10.88 17.04 10.93 16.30 11.14C15.13 11.48 13.85 12.17 13.85 13.51C13.85 14.59 14.63 15.16 15.69 15.16C16.98 15.16 17.89 14.38 18.38 13.33C18.49 14.69 19.05 15.16 19.91 15.16C20.73 15.16 21.24 14.70 21.24 14.15C21.24 13.99 21.18 13.75 21.06 13.55ZM16.70 13.92C16.17 13.97 15.96 13.51 15.96 13.03C15.96 12.47 16.28 12.03 16.73 11.77C17.16 11.52 17.75 11.47 18.30 11.47C18.30 12.84 17.42 13.85 16.70 13.92ZM26.38 7.59C25.24 7.59 24.46 8.19 24.04 9.49C23.91 8.34 23.44 7.66 22.55 7.66C21.87 7.66 21.39 8.06 21.39 8.64C21.39 8.81 21.45 9.04 21.57 9.24C21.66 9.11 21.84 9.09 21.94 9.09C22.19 9.09 22.30 9.31 22.30 9.81L22.29 17.07C22.29 17.68 22.78 18.05 23.39 18.05C23.94 18.05 24.33 17.78 24.50 17.63C24.23 16.70 24.19 15.60 24.19 14.97L24.19 14.41C24.46 14.94 25.05 15.22 25.86 15.22C27.71 15.22 28.90 13.82 28.90 11.14C28.90 9.20 28.24 7.59 26.38 7.59ZM25.37 14.24C24.53 14.24 24.22 13.57 24.22 12.12C24.22 10.47 24.68 8.61 25.79 8.61C26.63 8.61 26.84 9.56 26.84 11.13C26.84 13.10 26.43 14.24 25.37 14.24ZM34.57 7.59C33.43 7.59 32.65 8.19 32.23 9.49C32.10 8.34 31.63 7.66 30.74 7.66C30.06 7.66 29.58 8.06 29.58 8.64C29.58 8.81 29.64 9.04 29.76 9.24C29.85 9.11 30.03 9.09 30.13 9.09C30.38 9.09 30.49 9.31 30.49 9.81L30.48 17.07C30.48 17.68 30.97 18.05 31.58 18.05C32.13 18.05 32.52 17.78 32.69 17.63C32.42 16.70 32.38 15.60 32.38 14.97L32.38 14.41C32.65 14.94 33.24 15.22 34.05 15.22C35.90 15.22 37.09 13.82 37.09 11.14C37.09 9.20 36.43 7.59 34.57 7.59ZM33.56 14.24C32.72 14.24 32.41 13.57 32.41 12.12C32.41 10.47 32.87 8.61 33.98 8.61C34.82 8.61 35.03 9.56 35.03 11.13C35.03 13.10 34.62 14.24 33.56 14.24Z"></path></g><!----><!----></svg>